# xmcd
#
# Track frame offsets:
#	150
#	17038
#	28147
#	44557
#	60041
#	75402
#	89123
#	107787
#	121145
#	138257
#	154375
#	168337
#	180432
#	194991
#
# Disc length: 2820 seconds
#
# Revision: 3
# Processed by: cddbd v1.5.2PL0 Copyright (c) Steve Scherf et al.
# Submitted via: audiograbber 1.83.01
#
DISCID=b90b020e
DTITLE=Truck Stop - Ein Stückchen Ewigkeit
DYEAR=2019
DGENRE=Deutsch Country
TTITLE0=Ein Stückchen Ewigkeit
TTITLE1=Moin, Moin
TTITLE2=Das Gold der Elbe
TTITLE3=Uns gehört die Welt
TTITLE4=Helden
TTITLE5=Er hat Dich
TTITLE6=Alter Mann
TTITLE7=Ich bin der letzte Gast, der geht
TTITLE8=Nimm mich mit
TTITLE9=Freundschaft bleibt
TTITLE10=Spart Wasser, trinkt Bier!
TTITLE11=Männergrippe
TTITLE12=Die Männer der Bahn
TTITLE13=Still, so still
EXTD=MARO\n
EXTT0=
EXTT1=
EXTT2=
EXTT3=
EXTT4=
EXTT5=
EXTT6=
EXTT7=
EXTT8=
EXTT9=
EXTT10=
EXTT11=
EXTT12=
EXTT13=
PLAYORDER=
